<svg width="40" height="40" viewBox="0 0 40 40" fill="none" xmlns="http://www.w3.org/2000/svg">
<path d="M40 20C40 31.0457 31.0457 40 20 40C8.9543 40 0 31.0457 0 20C0 8.9543 8.9543 0 20 0C31.0457 0 40 8.9543 40 20Z" fill="#FFCDA0"/>
<path d="M10.1776 21.6225C10.0316 21.7782 9.95004 21.9887 9.95 22.2076V24.5452C9.95 24.7641 10.0315 24.9747 10.1776 25.1304C10.3237 25.2862 10.5226 25.3744 10.7308 25.3744H15.7962V25.9295C15.7802 26.9293 16.1107 27.9006 16.725 28.6575C17.3395 29.4145 18.195 29.9038 19.1279 30.0305L19.1294 30.0307C19.6448 30.0852 20.1652 30.024 20.657 29.8512C21.1488 29.6785 21.601 29.3979 21.9846 29.0278C22.3682 28.6578 22.6748 28.2064 22.8847 27.7028C23.0946 27.1993 23.2033 26.6545 23.2038 26.1037V26.1036V25.3744H28.2692C28.4774 25.3744 28.6763 25.2862 28.8224 25.1304C28.9685 24.9747 29.05 24.7641 29.05 24.5452V22.2076C29.05 21.9887 28.9684 21.7782 28.8224 21.6225L26.8577 19.5276V16.7531V16.7531C26.8554 14.8106 26.1778 12.9375 24.9551 11.4962C23.7323 10.0547 22.0511 9.14726 20.2362 8.95029L20.2362 8.95H20.2308H18.7692V8.94971L18.7638 8.95029C16.9489 9.14726 15.2677 10.0547 14.0449 11.4962C12.8222 12.9375 12.1446 14.8106 12.1423 16.7531V16.7531V19.5276L10.1776 21.6225ZM10.1776 21.6225L10.2141 21.6567M10.1776 21.6225L10.1776 21.6225L10.2141 21.6567M10.2141 21.6567C10.0771 21.8028 10 22.0009 10 22.2076V24.5452C10 24.7519 10.077 24.9501 10.214 25.0962C10.3511 25.2423 10.537 25.3244 10.7308 25.3244H15.7962L10.2141 21.6567ZM11.5115 23.716H27.4885V22.5499L25.5238 20.4551L25.5238 20.4551L25.5603 20.4209L11.5115 23.716ZM11.5115 23.716V22.5499L13.4762 20.4551L13.4762 20.4551L13.4397 20.4209L11.5115 23.716ZM21.6423 26.1036C21.6423 26.7113 21.4159 27.2936 21.0137 27.7224C20.6117 28.1511 20.0671 28.3912 19.5 28.3912C18.9329 28.3912 18.3883 28.1511 17.9863 27.7224C17.5841 27.2936 17.3577 26.7113 17.3577 26.1036V25.3744H21.6423V26.1036Z" fill="#A36A36" stroke="#A36A36" stroke-width="0.1"/>
</svg>
