<svg width="40" height="40" viewBox="0 0 40 40" fill="none" xmlns="http://www.w3.org/2000/svg">
<path d="M40 20C40 31.0457 31.0457 40 20 40C8.9543 40 0 31.0457 0 20C0 8.9543 8.9543 0 20 0C31.0457 0 40 8.9543 40 20Z" fill="#D3D3D3"/>
<path d="M20 11C21.0609 11 22.0783 11.4214 22.8284 12.1716C23.5786 12.9217 24 13.9391 24 15C24 16.0609 23.5786 17.0783 22.8284 17.8284C22.0783 18.5786 21.0609 19 20 19C18.9391 19 17.9217 18.5786 17.1716 17.8284C16.4214 17.0783 16 16.0609 16 15C16 13.9391 16.4214 12.9217 17.1716 12.1716C17.9217 11.4214 18.9391 11 20 11ZM20 21C24.42 21 28 22.79 28 25V27H12V25C12 22.79 15.58 21 20 21Z" fill="white"/>
</svg>
